<?xml version="1.0" encoding="utf-8"?>
<!-- Generator: Adobe Illustrator 25.2.1, SVG Export Plug-In . SVG Version: 6.00 Build 0)  -->
<svg version="1.1"
	 id="Layer_1" xmlns:cc="http://creativecommons.org/ns#" xmlns:dc="http://purl.org/dc/elements/1.1/" xmlns:inkscape="http://www.inkscape.org/namespaces/inkscape" xmlns:rdf="http://www.w3.org/1999/02/22-rdf-syntax-ns#" xmlns:svg="http://www.w3.org/2000/svg"
	 xmlns="http://www.w3.org/2000/svg" xmlns:xlink="http://www.w3.org/1999/xlink" x="0px" y="0px" viewBox="0 0 3404.4 2321.6"
	 style="enable-background:new 0 0 3404.4 2321.6;" xml:space="preserve">
<style type="text/css">
	.st0{fill:none;stroke:#000000;stroke-width:0.8035;stroke-linecap:round;stroke-linejoin:round;stroke-miterlimit:113.3858;}
	.st1{font-family:'PerpetuaTitlingMT-Light';}
	.st2{font-size:340.1575px;}
</style>
<g id="dovetail">
	<path class="st0" d="M28.3,28.3H76v9h28.3v-9h28.3v9h28.3v-9h28.3v9h28.3v-9h28.3v9h28.3v-9h28.3v9h28.3v-9h56.7v28.3h-9V85h9v28.3
		h-9v28.3h9v28.3h-9v28.3h9v28.3h-56.7v-9h-28.3v9h-28.3v-9h-28.3v9h-28.3v-9h-28.3v9h-28.3v-9h-28.3v9h-28.3v-9H76v9H28.3v-28.3h-9
		v-28.3h9v-28.3h-9v-28.3h9V85h-9V56.7h9L28.3,28.3"/>
	<path class="st0" d="M425.2,28.3h47.7v9h28.3v-9h28.3v9h28.3v-9h28.3v9h28.3v-9H643v9h28.3v-9h28.3v9H728v-9h56.7v28.3h-9V85h9
		v28.3h-9v28.3h9v28.3h-9v28.3h9v28.3H728v-9h-28.3v9h-28.3v-9H643v9h-28.3v-9h-28.3v9h-28.3v-9h-28.3v9h-28.3v-9h-28.3v9h-47.7
		v-28.3h-9v-28.3h9v-28.3h-9v-28.3h9V85h-9V56.7h9L425.2,28.3"/>
	<path class="st0" d="M822,28.3h47.7v9h28.3v-9h28.3v9h28.3v-9h28.3v9h28.3v-9h28.3v9h28.3v-9h28.3v9h28.3v-9h56.7v28.3h-9V85h9
		v28.3h-9v28.3h9v28.3h-9v28.3h9v28.3h-56.7v-9h-28.3v9h-28.3v-9h-28.3v9h-28.3v-9h-28.3v9h-28.3v-9h-28.3v9h-28.3v-9h-28.3v9H822
		v-28.3h-9v-28.3h9v-28.3h-9v-28.3h9V85h-9V56.7h9L822,28.3"/>
	<path class="st0" d="M28.3,255.1H76v9h28.3v-9h28.3v9h28.3v-9h28.3v9h28.3v-9h28.3v9h28.3v-9h28.3v9h28.3v-9h56.7v28.3h-9v28.3h9
		v28.3h-9v28.3h9v28.3h-9v28.3h9v28.3h-56.7v-9h-28.3v9h-28.3v-9h-28.3v9h-28.3v-9h-28.3v9h-28.3v-9h-28.3v9h-28.3v-9H76v9H28.3
		v-28.3h-9v-28.3h9v-28.3h-9v-28.3h9v-28.3h-9v-28.3h9L28.3,255.1"/>
	<path class="st0" d="M425.2,255.1h47.7v-9h28.3v9h28.3v-9h28.3v9h28.3v-9h28.3v9H643v-9h28.3v9h28.3v-9H728v9h47.7v47.7h9v28.3h-9
		v28.3h9v28.3h-9v28.3h9v28.3h-9v28.3h9v28.3h-9v28.3h9v28.3h-9v47.7H728v9h-28.3v-9h-28.3v9H643v-9h-28.3v9h-28.3v-9h-28.3v9h-28.3
		v-9h-28.3v9h-28.3v-9h-47.7v-47.7h-9v-28.3h9v-28.3h-9v-28.3h9v-28.3h-9v-28.3h9v-28.3h-9v-28.3h9v-28.3h-9v-28.3h9L425.2,255.1"/>
	<path class="st0" d="M822,255.1h47.7v-9h28.3v9h28.3v-9h28.3v9h28.3v-9h28.3v9h28.3v-9h28.3v9h28.3v-9h28.3v9h47.7v47.7h9v28.3h-9
		v28.3h9v28.3h-9v28.3h9v28.3h-9v28.3h9v28.3h-9v28.3h9v28.3h-9v47.7h-47.7v9h-28.3v-9h-28.3v9h-28.3v-9h-28.3v9h-28.3v-9h-28.3v9
		h-28.3v-9h-28.3v9h-28.3v-9H822v-47.7h-9v-28.3h9v-28.3h-9v-28.3h9v-28.3h-9v-28.3h9v-28.3h-9v-28.3h9v-28.3h-9v-28.3h9L822,255.1"
		/>
</g>
<text transform="matrix(1 0 0 1 911.833 549.8405)" class="st1 st2">B</text>
</svg>
