<?xml version="1.0" encoding="us-ascii"?>
<svg height="81.90cm" viewBox="0.0 0.0 120.10 81.90" width="120.10cm" xmlns="http://www.w3.org/2000/svg" xmlns:cc="http://creativecommons.org/ns#" xmlns:dc="http://purl.org/dc/elements/1.1/" xmlns:inkscape="http://www.inkscape.org/namespaces/inkscape" xmlns:rdf="http://www.w3.org/1999/02/22-rdf-syntax-ns#" xmlns:svg="http://www.w3.org/2000/svg" xmlns:xlink="http://www.w3.org/1999/xlink">
<style type="text/css">
.st0{fill:none;stroke:#FFFFFF;stroke-width:0.001;stroke-linecap:round;stroke-linejoin:round;stroke-miterlimit:4;}
.st1{font-family:"PerpetuaTitlingMT-Light";}
.st2{font-size:4px;}
</style>
<g id="dovetail">
  <path class="st0" d="M 1.0 1.0 h 1.5v 0.5h 1.0v -0.5h2.0 v 1.0h -0.5v 1.0h 0.5v 1.0h -0.5v 1.0h 0.5v 1.0h-2.0 v -0.5h -1.0v 0.5h -1.5v -1.0h -0.5v -1.0h 0.5v -1.0h -0.5v -1.0h 0.5v -1.0"/>
  <path class="st0" d="M 7.0 1.0 h 1.5v 0.5h 1.0v -0.5h2.0 v 1.0h -0.5v 1.0h 0.5v 1.0h -0.5v 1.0h 0.5v 1.0h-2.0 v -0.5h -1.0v 0.5h -1.5v -1.0h -0.5v -1.0h 0.5v -1.0h -0.5v -1.0h 0.5v -1.0"/>
  <path class="st0" d="M 13.0 1.0 h 1.5v 0.5h 1.0v -0.5h2.0 v 1.0h -0.5v 1.0h 0.5v 1.0h -0.5v 1.0h 0.5v 1.0h-2.0 v -0.5h -1.0v 0.5h -1.5v -1.0h -0.5v -1.0h 0.5v -1.0h -0.5v -1.0h 0.5v -1.0"/>
  <path class="st0" d="M 1.0 8.0 h 1.5v 0.5h 1.0v -0.5h2.0 v 1.0h -0.5v 1.0h 0.5v 1.0h -0.5v 1.0h 0.5v 1.0h-2.0 v -0.5h -1.0v 0.5h -1.5v -1.0h -0.5v -1.0h 0.5v -1.0h -0.5v -1.0h 0.5v -1.0"/>
  <path class="st0" d="M 7.0 8.0 h1.5v -0.5h 1.0v 0.5h1.5v1.5h 0.5v 1.0h -0.5v1.5h-1.5v 0.5h -1.0v -0.5h-1.5v-1.5h -0.5v -1.0h 0.5v-1.5"/>
  <path class="st0" d="M 13.0 8.0 h1.5v -0.5h 1.0v 0.5h1.5v1.5h 0.5v 1.0h -0.5v1.5h-1.5v 0.5h -1.0v -0.5h-1.5v-1.5h -0.5v -1.0h 0.5v-1.5"/>
</g>
<text transform="matrix(1 0 0 1 3.5cm 4.25cm)" class="st1 st2" alignment-baseline="center" text-anchor="middle" x="0" y="0">A</text>
</svg>