<?xml version="1.0" encoding="utf-8"?>
<!-- Generator: Adobe Illustrator 25.2.1, SVG Export Plug-In . SVG Version: 6.00 Build 0)  -->
<svg version="1.1"
	 id="Layer_1" xmlns:cc="http://creativecommons.org/ns#" xmlns:dc="http://purl.org/dc/elements/1.1/" xmlns:inkscape="http://www.inkscape.org/namespaces/inkscape" xmlns:rdf="http://www.w3.org/1999/02/22-rdf-syntax-ns#" xmlns:svg="http://www.w3.org/2000/svg"
	 xmlns="http://www.w3.org/2000/svg" xmlns:xlink="http://www.w3.org/1999/xlink" x="0px" y="0px" viewBox="0 0 3404.4 2321.6"
	 style="enable-background:new 0 0 3404.4 2321.6;" xml:space="preserve">
<style type="text/css">
	.st0{fill:none;stroke:#FFFFFF;stroke-width:2.834646e-02;stroke-linecap:round;stroke-linejoin:round;stroke-miterlimit:113.3858;}
</style>
<g id="dovetail">
	<path class="st0" d="M28.3,28.3H76v9h28.3v-9h28.3v9h28.3v-9h56.7v28.3h-9V85h9v28.3h-9v28.3h9v28.3h-9v28.3h9v28.3h-9v28.3h9v28.3
		h-56.7v-9h-28.3v9h-28.3v-9H76v9H28.3v-28.3h-9v-28.3h9v-28.3h-9v-28.3h9v-28.3h-9v-28.3h9V85h-9V56.7h9L28.3,28.3"/>
	<path class="st0" d="M255.1,28.3h47.7v9h28.3v-9h28.3v9h28.3v-9h56.7v28.3h-9V85h9v28.3h-9v28.3h9v28.3h-9v28.3h9v28.3h-9v28.3h9
		v28.3h-56.7v-9h-28.3v9h-28.3v-9h-28.3v9h-47.7v-28.3h-9v-28.3h9v-28.3h-9v-28.3h9v-28.3h-9v-28.3h9V85h-9V56.7h9V28.3"/>
	<path class="st0" d="M481.9,28.3h47.7v9h28.3v-9h56.7v28.3h-9V85h9v28.3h-9v28.3h9v28.3h-9v28.3h9v28.3h-9v28.3h9v28.3h-56.7v-9
		h-28.3v9h-47.7v-28.3h-9v-28.3h9v-28.3h-9v-28.3h9v-28.3h-9v-28.3h9V85h-9V56.7h9V28.3"/>
	<path class="st0" d="M28.3,340.2H76v9h28.3v-9h56.7v28.3h-9v28.3h9v28.3h-9v28.3h9v28.3h-9v28.3h9v28.3h-9v28.3h9v28.3h-56.7v-9H76
		v9H28.3v-28.3h-9v-28.3h9v-28.3h-9v-28.3h9v-28.3h-9v-28.3h9v-28.3h-9v-28.3h9L28.3,340.2"/>
	<path class="st0" d="M198.4,340.2h47.7v-9h28.3v9h28.3v-9h28.3v9h47.7v47.7h9v28.3h-9v47.7h-47.7v9h-28.3v-9h-28.3v9h-28.3v-9
		h-47.7v-47.7h-9v-28.3h9V340.2"/>
	<path class="st0" d="M425.2,340.2h47.7v-9h28.3v9h28.3v-9h28.3v9h47.7v47.7h9v28.3h-9v47.7h-47.7v9h-28.3v-9h-28.3v9h-28.3v-9
		h-47.7v-47.7h-9v-28.3h9L425.2,340.2"/>
</g>
</svg>
